PathFileType	4	(X/Y/Z)	pose_F01_0-65.trc
DataRate	CameraRate	NumFrames	NumMarkers	Units	OrigDataRate	OrigDataStartFrame	OrigNumFrames
30	30	11	21	m	30	26	65
Frame#	Time	CHip			RHip			RKnee			RAnkle			RBigToe			RSmallToe			RHeel			LHip			LKnee			LAnkle			LBigToe			LSmallToe			LHeel			Neck			Nose			RShoulder			RElbow			RWrist			LShoulder			LElbow			LWrist			
		X1	Y1	Z1	X2	Y2	Z2	X3	Y3	Z3	X4	Y4	Z4	X5	Y5	Z5	X6	Y6	Z6	X7	Y7	Z7	X8	Y8	Z8	X9	Y9	Z9	X10	Y10	Z10	X11	Y11	Z11	X12	Y12	Z12	X13	Y13	Z13	X14	Y14	Z14	X15	Y15	Z15	X16	Y16	Z16	X17	Y17	Z17	X18	Y18	Z18	X19	Y19	Z19	X20	Y20	Z20	X21	Y21	Z21	
26	0.8666666666666667	-0.23566594555450782	1.8685124307496896	-0.4356513636486736	-0.2514447902130573	1.867302948952278	-0.3769571871770771	-0.2576163812327928	1.734723441321591	-0.39442443556497225													-0.219732677129641	1.871868229131507	-0.4893140611267974	-0.2060708020404439	1.7339488205637785	-0.5280881733740787	-0.19439251071094435	1.6124555449740623	-0.49191727158979914	-0.19205542416428167	1.583518557421474	-0.5663634626721556	-0.18280484670536196	1.593342382203021	-0.5732688546808518	-0.201088008188827	1.606493099301084	-0.47546367040924153	-0.2519551144852115	2.017545657813094	-0.5032906986777046	-0.26451151237015613	2.053286376682096	-0.5953585838294636	-0.27595456453713574	2.0148546311586357	-0.413226933529895	-0.295901171975735	1.9315874218673048	-0.36668939223043556	-1.6857657442464822	1.8748723057240226	1.018203745413803	-0.22147555568636165	2.0210896919476444	-0.5819540832346888	-0.2023195800365717	1.9463281928709442	-0.661080847922127	-0.212393568131295	2.005976618500718	-0.7109539375403083
27	0.9	-0.23472740556213104	1.8694399813865363	-0.4412272915429922	-0.25058852451590985	1.8650755034299398	-0.3819299121222698	-0.2576163812327928	1.734723441321591	-0.39442443556497225													-0.2196592658706203	1.8728000012077344	-0.4981658780735614	-0.20675270448422917	1.7356251055473007	-0.5316064869120455	-0.19645215740463157	1.6130496599291997	-0.48988627068871815	-0.19229602734943727	1.5820568989138406	-0.5656742139998912	-0.18294514898418704	1.5915313814021674	-0.5727467223135915	-0.20164250388964697	1.6093279715086557	-0.47500541106410266	-0.24965202179281135	2.0223385687262385	-0.5057696938535318	-0.26063355292294704	2.0530693820481525	-0.5829584653840493	-0.2736340934629655	2.01869218234	-0.41494772214285824	-0.29014602549258994	1.9426108557413957	-0.3598616611708097	-1.2296644773350616	1.9251230868392708	0.5282573617477995	-0.22217504634244029	2.026637592484127	-0.5859437716126104	-1.3843534166600961	1.8638246740818583	0.5720593172444985	-0.2133813283510279	2.0175773785545195	-0.7068000473155664
28	0.9333333333333333	-0.23281403092358838	1.8722995763570298	-0.4440032944759389	-0.2497502743696864	1.867237149081641	-0.38795745026789297	-0.2576163812327928	1.734723441321591	-0.39442443556497225													-0.21757620158430607	1.8752951921893852	-0.5008794246367532	-0.20700887461882017	1.7350817610628266	-0.5314476050894543	-0.1943308732804522	1.6121706097366777	-0.49190130950524985	-0.19198104642867872	1.5831808219107284	-0.5663727442524519	-0.18271216718386535	1.5930767467316824	-0.5733044410958261	-0.20150141321954068	1.6088481097266156	-0.47489917600111703	-0.24767334955585907	2.0282553218432917	-0.501458305751606	-0.25669087002695384	2.054504272880271	-0.5793690121391651	-0.27364977647498584	2.024973627039979	-0.4170192845291273	-0.28785713889973147	1.9539882191623792	-0.3638169595349313	-0.7735632104236411	1.9753738679545192	0.038310978081795954	-0.21919438343516734	2.0302561863496633	-0.5856719141987804	-1.369616132188151	1.8717751776721658	0.544145880608323	-0.21150687806318122	2.0276365396856844	-0.7022834538843368
29	0.9666666666666667	-0.23195235306191198	1.874227828798517	-0.44976024605881226	-0.24710482727741032	1.8692869624021549	-0.3959143936277945	-0.2576163812327928	1.734723441321591	-0.39442443556497225													-0.21559292682875025	1.8779339371312431	-0.5120441756265381	-0.20491790450420408	1.7371751380180505	-0.5338963711584166	-0.19448434556610164	1.612899601980228	-0.4919674662655826	-0.19221103019296842	1.5818425045586202	-0.5657432549668886	-0.18297190420057183	1.5917402692774207	-0.572715437008836	-0.20137002368394855	1.6080175171947704	-0.4753144270305037	-0.24189286064822407	2.0305954167330595	-0.5004906669895808	-0.2543344227360727	2.061113676921629	-0.5819729165390602	-0.26971349234928194	2.0275750470244436	-0.421866282076191	-0.29702683627484694	1.964075653299497	-0.4003242488816712	-0.3174619435122205	2.0256246490697674	-0.45163540558420756	-0.21821079935923243	2.0349234935388623	-0.5838172518172314	-0.20203447509273026	1.96387844743174	-0.6749541788465464	-0.21084737723241773	2.0344858221697217	-0.7009354454114403
30	1.0	-0.23176847709588522	1.8761185463027377	-0.4588040955097977	-0.2442848074978354	1.872855758988068	-0.4041683074236316	-0.2576163812327928	1.734723441321591	-0.39442443556497225													-0.21537794981537914	1.8789502017401403	-0.5209397502388969	-0.20517634855747202	1.7399162856144053	-0.534020798528082	-0.19440945196584813	1.6126782697063136	-0.4920900260297717	-0.19208759050144147	1.583627792734327	-0.5663460432036175	-0.18275389517771296	1.593202197213318	-0.5733206684124029	-0.20225013935642358	1.6076928412393712	-0.4784528988674904	-0.23780865042527038	2.031525496602187	-0.49640157340941604	-0.25526023051443175	2.0739705906181016	-0.5800190969543999	-0.2647900215004756	2.030100178759641	-0.4234723767693855	-0.3000563453616063	1.9602097657260278	-0.41625992224069563	-0.3138012664401442	2.037412448981085	-0.46744969429176825	-0.2121101894781288	2.036828177515603	-0.581977320248784	-0.1972049052372009	1.9707077862480185	-0.6687723924318757	-0.20883376466871625	2.040649334054329	-0.6953324211819308
31	1.0333333333333334	-0.2308139432165171	1.8759461917270002	-0.4642366797559628	-0.24240687140672043	1.872847346572883	-0.40627394478327655	-0.2576163812327928	1.734723441321591	-0.39442443556497225													-0.2142017475305085	1.8799499628162752	-0.5264926596468322	-0.20423907801015181	1.741416805761594	-0.539394814599156	-0.19454239943606075	1.6130916189367939	-0.4920246235559244	-0.1922534888362694	1.5820784097382372	-0.5657840972605098	-0.1829960989965933	1.5919060927506998	-0.5727656817066294	-0.20127368383480487	1.6073676371293075	-0.4752698358971337	-0.2376868810932937	2.0338555843133683	-0.4967501296755357	-0.25192597001686123	2.076981861909971	-0.5788278418015466	-0.26183061939015145	2.0300890617647966	-0.42242713435985413	-0.2963722327255029	1.9664815866698118	-0.4221188371233657	-0.3101294794306879	2.0369730388335903	-0.47233623310307077	-0.21207613629582636	2.038923126904147	-0.5822125598729095	-0.19696759053677282	1.974456760767654	-0.6690490654782626	-0.20751715233673335	2.0460187366768925	-0.6918369035231118
32	1.0666666666666667	-0.2301565642183109	1.883097606733241	-0.47091638953157605	-0.24459597149952045	1.8792154687449154	-0.41392800619239967	-0.2576163812327928	1.734723441321591	-0.39442443556497225													-0.21460738372991248	1.8853336964441265	-0.5276168807946706	-0.20318125391046407	1.7461032749803636	-0.5368948116424686	-0.1944280010839993	1.6126696517937578	-0.49193254228312266	-0.1923004208592923	1.5823543977035521	-0.5657534732353927	-0.1830472225671414	1.5921520823695372	-0.5726978165765286	-0.20151957517287786	1.6090121522403265	-0.4749130879289198	-0.2356089203553554	2.035144786662795	-0.4987569811542785	-0.24996355100975104	2.081499942364142	-0.5734189376572879	-0.25878749845891685	2.032541573530135	-0.4219511241639501	-1.7753108368182178	1.885672042044421	1.2106612205059422	-0.3020160668996405	2.0405302743189475	-0.47253696104587456	-0.2110938371835596	2.03882319976662	-0.5792057929285798	-0.19624757872846815	1.9761735723421436	-0.666861061011973	-0.20707028077363412	2.042603717127252	-0.6896898926374881
33	1.1	-0.22982715944974205	1.883134305321792	-0.479543176693864	-0.24451248885020727	1.879775567389574	-0.42263720221147055	-0.2576163812327928	1.734723441321591	-0.39442443556497225													-0.2133737611079939	1.8863221578184346	-0.5332513847753659	-0.2035683517448134	1.7438400734027584	-0.5362424620787242	-0.1944141202826633	1.612619002021991	-0.4919782844713612	-0.19181745115682236	1.5824060776613618	-0.566229651453688	-0.1826055796017766	1.5924542733384999	-0.5731993014433561	-0.20115690559666044	1.6069624946513064	-0.47523611903574253	-0.23538855543919754	2.0364001762998725	-0.4987957083907511	-0.24877438238338395	2.0864914155052534	-0.5712051300975858	-0.2578297638928204	2.033965213570765	-0.42709862009265787	-0.2912404483641698	1.9701958323481616	-0.43197805822661633	-0.29573350484310434	2.041101685965885	-0.4699860946289598	-0.20791812219081582	2.0413720753219624	-0.5781718271640817	-0.19706173941675964	1.9767843864659402	-0.6698268299025547	-0.20603730165806763	2.044980438181581	-0.6870563390980668
34	1.1333333333333333	-0.22792148101177878	1.8830453827806555	-0.48188031371517764	-0.24460753387549022	1.8808224512098257	-0.42301098836311923	-0.2576163812327928	1.734723441321591	-0.39442443556497225													-0.21424736055858426	1.8863059728797336	-0.5365455918678981	-0.20332834011088588	1.744399289113089	-0.5364526583382878	-0.194135284475161	1.6137775454711925	-0.4925273563773764	-0.19207574095858443	1.5834338741664618	-0.5663420783726635	-0.18277392890618624	1.5932513757329463	-0.5733354682956872	-0.2015190687914472	1.6091167229939265	-0.4750154194688805	-0.23543585111031623	2.037723603325255	-0.49928539541150885	-0.24693548496020695	2.0897409585978	-0.5749753080069586	-0.2557970998047684	2.0349097978094792	-0.4213488310704946	-1.773374365306121	1.8857771696705996	1.207951583149587	-0.295548900704488	2.043672209353682	-0.4704786230756164	-0.20892903060473844	2.0424928569087473	-0.5817749795084918	-0.19626542736543418	1.976574403736675	-0.6667954104459913	-0.2049930968050407	2.049055136615984	-0.6840013859270573
35	1.1666666666666667	-0.22984831920817472	1.8829710120840508	-0.47972794710831207	-0.24535713196944253	1.8808731468803739	-0.4260499939059999	-0.2576163812327928	1.734723441321591	-0.39442443556497225													-0.21429676776539916	1.8864391446653432	-0.5364028450531256	-0.20329430386363184	1.7443773949841008	-0.5365804930502398	-0.19444924587407747	1.6128786100251216	-0.49198925392303217	-0.18987990989838582	1.5832186479510795	-0.5684893666797136	-0.18263571144220184	1.5929084392040231	-0.5733240379561332	-0.20148107373693802	1.608976533167701	-0.4749971733466933	-0.23260252383342436	2.0377027506978918	-0.4983762469361981	-0.24587437499172854	2.089261150686872	-0.56286849802568	-0.2558501358483099	2.036203189312906	-0.42192770873147317	-0.288434268441843	1.9764451249952213	-0.4326167520767582	-0.29308263012044916	2.052608801624416	-0.4654293960334892	-0.207073042016408	2.041986994004977	-0.5755320103203228	-0.1984091521380906	1.975858937815837	-0.6644727863601243	-0.20405020801277624	2.0523368703505662	-0.681194437804441
36	1.2	-0.22994273289082084	1.88407531533747	-0.480121133687272	-0.24557861161771422	1.8830548299393615	-0.4266882414175996	-0.2576163812327928	1.734723441321591	-0.39442443556497225													-0.21436881428775087	1.8873740002788086	-0.536783984537424	-0.20540863253815914	1.7416624700498415	-0.5339429968173073	-0.194725550552376	1.6144264856533885	-0.49172469916198275	-0.19212363594756743	1.5839671849135326	-0.5662950014792193	-0.18285105808120003	1.5937020604659937	-0.5733109510543792	-0.20161765287790176	1.6098162949244725	-0.4747192434838439	-0.23445040106360185	2.0400696908892115	-0.49669735481881755	-0.24574795780745912	2.0942772464968673	-0.5636250871540077	-0.25475719569569205	2.0385387029026223	-0.41920357785756085	-0.29005032552848614	1.979038277233327	-0.430374271533217	-0.2907470322412008	2.062218095920561	-0.46147663303141223	-0.20727483809272745	2.0419874360656554	-0.5760386501661051	-0.19818035459798272	1.9783908554801408	-0.664544471491296	-0.2069224476997592	2.053619820807433	-0.6819871609485421
